<?xml version="1.0" standalone="no"?>
<!DOCTYPE svg PUBLIC "-//W3C//DTD SVG 20010904//EN"
 "http://www.w3.org/TR/2001/REC-SVG-20010904/DTD/svg10.dtd">
<svg version="1.0" xmlns="http://www.w3.org/2000/svg"
 width="16.000000pt" height="16.000000pt" viewBox="0 0 16.000000 16.000000"
 preserveAspectRatio="xMidYMid meet">
<metadata>
Created by potrace 1.11, written by Peter Selinger 2001-2013
</metadata>
<g transform="translate(0.000000,16.000000) scale(0.004444,-0.004444)"
fill="#000000" stroke="none">
<path d="M366 3398 c-5 -16 -337 -3167 -336 -3190 0 -17 83 -18 1605 -18
l1604 0 5 33 c6 36 336 3155 336 3175 0 18 -3209 18 -3214 0z m623 -797 c9
-14 -18 -232 -30 -247 -5 -6 -33 -14 -63 -17 -71 -7 -131 -38 -143 -74 -17
-48 0 -141 69 -383 66 -233 88 -339 88 -432 0 -148 -33 -242 -116 -325 -81
-81 -201 -126 -367 -136 -99 -6 -100 -5 -83 131 8 62 19 118 25 125 5 7 27 14
48 15 104 7 186 39 208 82 38 73 22 189 -60 455 -72 233 -89 324 -83 446 7
152 61 246 175 307 66 35 120 50 207 61 77 9 116 6 125 -8z m793 -20 c80 -31
140 -99 163 -186 14 -52 17 -89 12 -187 -10 -223 -52 -355 -144 -450 -80 -81
-195 -127 -363 -143 -41 -4 -75 -8 -76 -9 -1 0 -16 -131 -33 -291 -18 -159
-36 -294 -41 -299 -5 -5 -64 -9 -132 -10 l-123 -1 1 30 c0 17 3 59 7 95 53
461 78 682 82 715 3 22 21 180 40 350 41 364 43 377 54 388 5 5 51 11 102 14
52 3 96 7 98 9 2 1 69 2 150 0 123 -2 155 -6 203 -25z m676 2 c5 -10 38 -185
73 -390 35 -204 65 -370 67 -369 3 4 61 142 199 481 59 143 111 265 117 272
15 17 291 29 309 14 10 -8 12 -25 7 -63 -4 -29 -11 -84 -14 -123 -4 -38 -9
-81 -11 -95 -2 -14 -6 -52 -10 -85 -3 -33 -8 -76 -10 -95 -2 -19 -6 -55 -9
-80 -3 -25 -10 -83 -15 -130 -6 -47 -13 -112 -16 -145 -4 -33 -8 -71 -10 -85
-2 -14 -6 -54 -10 -90 -4 -36 -8 -76 -10 -90 -2 -14 -6 -54 -10 -90 -4 -36 -8
-76 -10 -90 -2 -14 -9 -70 -15 -125 -17 -156 -21 -179 -32 -193 -12 -13 -244
-18 -251 -4 -4 6 175 1139 187 1186 15 57 -27 -35 -163 -358 -82 -197 -153
-361 -156 -365 -4 -3 -56 -8 -117 -11 -80 -4 -113 -2 -120 7 -6 7 -35 168 -66
358 -31 190 -59 345 -63 345 -3 0 -7 -29 -8 -65 -1 -35 -4 -72 -5 -82 -2 -10
-7 -83 -11 -163 -4 -80 -9 -152 -10 -160 -2 -8 -6 -76 -10 -150 -4 -74 -8
-151 -10 -170 -2 -19 -6 -87 -9 -150 -9 -161 -16 -214 -29 -222 -17 -11 -225
-10 -231 0 -4 7 14 191 39 397 3 22 14 121 25 220 11 99 22 196 25 215 2 19
14 121 25 225 12 105 23 201 25 215 2 14 9 79 16 145 7 66 16 130 20 142 9 24
16 25 201 31 85 3 98 1 106 -15z"/>
<path d="M1461 2352 c-5 -9 -12 -53 -16 -97 -4 -44 -8 -87 -10 -95 -1 -8 -6
-46 -10 -85 -3 -38 -8 -83 -10 -100 -2 -16 -7 -51 -10 -76 l-5 -46 47 4 c184
17 243 96 243 327 0 129 -39 175 -155 182 -53 3 -66 0 -74 -14z"/>
</g>
</svg>
