<?xml version="1.0" encoding="utf-8"?>
<!-- Generator: Adobe Illustrator 21.0.0, SVG Export Plug-In . SVG Version: 6.00 Build 0)  -->
<svg version="1.1" id="Layer_1" xmlns="http://www.w3.org/2000/svg" xmlns:xlink="http://www.w3.org/1999/xlink" x="0px" y="0px"
	 viewBox="200 150 230 230" style="enable-background:new 0 0 792 612;" xml:space="preserve">
<style type="text/css">
	.st0{fill:#FFFFFF;}
</style>
<g>
	<g>
		<path class="st0" d="M282.6,263h-39.5v-1.5c1.2-0.1,4.1-0.4,5-0.8c1.7-0.6,2.1-1.9,2.1-3.5v-35.2c0-1.5-0.4-2.7-2.1-3.5
			c-1.2-0.6-3.7-1.2-5-1.3v-1.5h21.6v1.5c-1.2,0.1-3.8,0.6-5,1c-1.7,0.6-2.1,1.9-2.1,3.5v33.1c0,5.9,0.8,6.4,8.2,6.4
			c4,0,8.8-0.3,10.2-1.8c1.8-1.9,5.3-7.4,6-9.8h1.7L282.6,263z"/>
		<path class="st0" d="M301,263.8c-10.4,0-15.3-7.6-15.3-16.7c0-8.3,5.3-16.3,14.5-16.3c9.5,0,12.9,6.2,12.9,13.3v0.6h-20.6v0.8
			c0,8.9,2.9,15.3,10.3,15.3c5.4,0,7.1-1.9,9.8-6.2l1.2,0.8C311.5,260.4,306.8,263.8,301,263.8z M300.2,232.4
			c-4.4,0-7.4,4.3-7.6,10.8l13.9-0.1C306.5,238.1,305.4,232.4,300.2,232.4z"/>
		<path class="st0" d="M336.6,263h-24.1v-1.5c1.2-0.1,4.2-0.6,5.1-0.9c1.7-0.6,2.1-1.8,2.1-3.3v-35.3c0-1.5-0.5-2.8-2.1-3.5
			c-1.5-0.6-3.6-1.1-4.8-1.2v-1.5h23.7c5.1,0,13.6,2.1,13.6,9.5c0,7.8-5.4,10.2-12,12v0.6c4.9,0.6,14.5,3.5,14.5,12.6
			C352.5,259.3,343.2,263,336.6,263z M332.8,217.6c-1.2,0-4,0.1-5.7,0.1v19.3h4.3c7.6,0,10.3-4.7,10.3-10.5
			C341.7,219.7,337.1,217.6,332.8,217.6z M333,238.9c-1.2,0-4.6,0.1-5.9,0.1v17.8c0.5,3.1,2.4,4.2,6.5,4.2c8.2,0,10.4-6.4,10.4-12
			C344,243.5,340.2,238.9,333,238.9z"/>
		<path class="st0" d="M370.8,264c-8.3,0-15.6-6.3-15.6-16.5c0-9.8,6.4-16.7,16.1-16.7c9.7,0,15.8,7,15.8,16.2
			C387,256.2,381.2,264,370.8,264z M371.2,232.4c-7.2,0-9.1,8-9.1,14.5c0,8.2,2.6,15.4,9.1,15.4c6.2,0,8.9-7,8.9-15.3
			C380.1,239.8,377.9,232.4,371.2,232.4z"/>
		<path class="st0" d="M430.4,237.3c-3,7.6-4.4,11-7.5,18.9c-1,2.4-1.7,4.3-2.6,7.3h-1.9c-3-8.4-5.8-15.6-8.5-22.4
			c-2,4.5-3.9,10-5.9,15.1c-1,2.4-1.7,4.3-2.7,7.3h-2.1c-4.9-12.4-6.9-17.4-10.9-26.8c-0.8-1.9-3.1-3.3-5-3.5v-1.5h14.9v1.6
			c-1.6,0.1-3.7,0.3-3.7,1.5c0,0.1,0.1,0.6,0.5,1.5c1.4,3.5,4.6,11.5,7.5,18.8h0.2c2.1-5.5,4.3-10.7,6.3-16.3
			c-0.1-0.4-0.7-1.5-1.2-2.6c-0.9-2-2.6-2.8-4.6-3v-1.5h14.3v1.5c-1.6,0.1-3.6,0.2-3.6,1.4c0,0.1,0.1,0.8,0.5,1.6
			c1.3,3.5,4.6,12,7.2,18.9h0.2c2.8-7.2,4.6-12.2,6.6-17.8c0.2-0.6,0.3-1.4,0.3-1.8c0-1.7-3.9-2.4-4.9-2.4v-1.4h12.5v1.4
			C434.2,233.3,431.3,234.9,430.4,237.3z"/>
	</g>
	<g>
		<path class="st0" d="M242.6,199.6c0.5,0,1.4-0.1,1.7-0.3c0.6-0.2,0.7-0.6,0.7-1.1v-12c0-0.5-0.2-1-0.7-1.2
			c-0.5-0.3-1.2-0.4-1.6-0.4v-0.5h7.7c3.3,0,8.8,1.7,8.8,8.1c0,5.5-4.7,7.9-9.3,7.9h-7.4V199.6z M255.7,192.2c0-4.3-2.2-7.4-5.7-7.4
			c-0.5,0-1.3,0-1.8,0v12.9c0.1,1.1,0.7,1.7,2.2,1.7C254.1,199.4,255.7,196.4,255.7,192.2z"/>
		<path class="st0" d="M275.4,196.4c-0.3-2.2-0.7-4.1-3.2-4.1h-1.4v5.7c0,0.5,0.2,0.9,0.7,1.1c0.3,0.1,1.3,0.3,1.7,0.3v0.5h-8v-0.5
			c0.4,0,1.4-0.2,1.7-0.3c0.6-0.2,0.7-0.6,0.7-1.2v-12c0-0.5-0.1-1-0.7-1.2c-0.4-0.2-1.3-0.3-1.7-0.4v-0.5h8.4c3,0,5.5,1.1,5.5,3.6
			c0,2.6-2.4,3.6-4.3,4.1v0.2c1.1,0.1,3,0.7,3.5,2.4c0.4,1.3,0.5,2.3,0.7,3.4c0.2,0.9,0.7,1.1,1.1,1.1c0.6,0,1.1-0.7,1.1-2.1
			c0,0,0-0.5,0-0.5h0.7l0,0.5c0,2.1-0.9,3.4-3.2,3.4C276.7,200.3,275.7,199.2,275.4,196.4z M271.8,191.7c2.1,0,3.8-0.8,3.8-3.5
			c0-2.6-1.4-3.4-3.3-3.4h-1.5v6.9H271.8z"/>
		<path class="st0" d="M287.1,199.6c0.4,0,1.5-0.2,1.8-0.3c0.6-0.2,0.7-0.6,0.7-1.1v-11.9c0-0.5-0.1-0.9-0.7-1.1
			c-0.4-0.2-1.4-0.4-1.8-0.4v-0.5h13.3v3.9h-0.6c-0.3-1.1-1.5-3-2.6-3.1c-0.6-0.1-1.2-0.1-1.9-0.1h-2.5v6.7h1.8c1.3,0,1.7-0.4,2-0.7
			c0.4-0.4,0.7-1.6,0.8-2.2h0.6v6.6h-0.6c-0.1-0.7-0.5-1.9-0.8-2.3c-0.3-0.4-0.8-0.7-2-0.7h-1.8v5.2c0,1.8,0.4,2.1,2.6,2.1
			c1.5,0,3.1,0,3.6-0.5c0.8-0.8,1.7-2.7,2-3.4h0.6l-0.3,4.7h-14.2V199.6z"/>
		<path class="st0" d="M319.5,185.6c0-0.7-1-0.9-2.2-1v-0.5h6.6v0.5c-0.5,0-1.2,0.2-1.6,0.4c-0.9,0.4-1.5,1-2,1.7
			c-1.3,1.6-2.6,3.3-3.6,4.5c1.2,1.6,3.8,5.6,4.5,6.4c0.5,0.6,0.9,1.3,1.7,1.7c0.3,0.2,1.1,0.3,1.7,0.3v0.5h-9.2v-0.5
			c1.4-0.1,2.4-0.3,2.4-0.9c0-0.6-1.5-2.8-3.3-5.3c-1,1.2-3.7,4.6-3.7,5.3c0,0.7,1,0.9,2.2,1v0.5h-6.6v-0.5c0.5,0,1.2-0.2,1.6-0.4
			c0.9-0.4,1.5-1,2-1.7c1.5-1.7,2.9-3.6,4-5c-1.5-2.2-3.1-4.4-4.1-6c-0.5-0.8-0.9-1.3-1.7-1.7c-0.4-0.2-1.1-0.3-1.7-0.4v-0.5h9.2
			v0.5c-1.4,0.1-2.4,0.3-2.4,0.9c0,0.8,1.9,3.5,3,4.9C317.3,189,319.5,186.2,319.5,185.6z"/>
		<path class="st0" d="M329.5,199.6c0.4,0,1.5-0.2,1.8-0.3c0.6-0.2,0.7-0.6,0.7-1.1v-11.9c0-0.5-0.1-0.9-0.7-1.1
			c-0.4-0.2-1.4-0.4-1.8-0.4v-0.5h13.3v3.9h-0.6c-0.3-1.1-1.5-3-2.6-3.1c-0.6-0.1-1.2-0.1-1.9-0.1h-2.5v6.7h1.8c1.3,0,1.7-0.4,2-0.7
			c0.4-0.4,0.7-1.6,0.8-2.2h0.6v6.6h-0.6c-0.1-0.7-0.5-1.9-0.8-2.3c-0.3-0.4-0.8-0.7-2-0.7h-1.8v5.2c0,1.8,0.4,2.1,2.6,2.1
			c1.5,0,3.1,0,3.6-0.5c0.8-0.8,1.7-2.7,2-3.4h0.6l-0.3,4.7h-14.2V199.6z"/>
		<path class="st0" d="M349.8,199.6c0.4,0,1.4-0.2,1.7-0.3c0.6-0.2,0.7-0.7,0.7-1.2v-11.9c0-0.5-0.1-0.9-0.7-1.2
			c-0.4-0.2-1.3-0.4-1.7-0.4v-0.5h8v0.5c-0.4,0-1.3,0.2-1.7,0.3c-0.6,0.2-0.7,0.7-0.7,1.2v11.2c0,1.9,0.3,2.1,2.6,2.1
			c1.3,0,2.7-0.1,3.2-0.6c0.7-0.7,1.8-2.6,2.1-3.5h0.6l-0.3,4.8h-13.8V199.6z"/>
		<path class="st0" d="M380.1,195.4v-9.2c0-0.5-0.2-0.9-0.7-1.2c-0.4-0.2-1.3-0.4-1.6-0.4v-0.5h7.9v0.5c-0.4,0-1.3,0.2-1.7,0.3
			c-0.6,0.2-0.7,0.6-0.7,1.1v9c0,2.4,0.9,4.3,4,4.3c3.2,0,4.3-2.2,4.3-4.4v-6.5c0-1.8-0.3-2.8-0.8-3.2c-0.5-0.4-1.8-0.7-2.3-0.7
			v-0.5h6.9v0.5c-0.4,0-1.6,0.2-2.2,0.6c-0.6,0.4-0.7,1.5-0.7,3.2v6.8c0,3.8-3.2,5.3-6,5.3C382.3,200.5,380.1,198.2,380.1,195.4z"/>
		<path class="st0" d="M404.1,187.3v8.3c0,1.8,0.3,2.8,0.8,3.2c0.4,0.3,1.9,0.7,2.3,0.7v0.5h-6.9v-0.5c0.4,0,1.8-0.4,2.2-0.6
			c0.5-0.4,0.8-1.4,0.8-3.2v-8.2c0-0.7-0.2-1.4-0.7-1.9c-0.5-0.5-1.6-0.9-2.4-1.1v-0.5h5.3l9.2,11.6v-7.2c0-1.7-0.3-2.8-0.8-3.2
			c-0.4-0.3-1.8-0.7-2.3-0.7v-0.5h6.9v0.5c-0.4,0-1.7,0.3-2.2,0.6c-0.6,0.4-0.7,1.5-0.7,3.2v11.8h-1.2L404.1,187.3z"/>
		<path class="st0" d="M423.6,199.6c0.4,0,1.4-0.1,1.7-0.3c0.6-0.2,0.7-0.6,0.7-1.1v-12c0-0.5-0.2-0.9-0.7-1.1
			c-0.4-0.2-1.2-0.4-1.7-0.4v-0.5h7.9v0.5c-0.4,0-1.3,0.2-1.7,0.3c-0.6,0.2-0.7,0.6-0.7,1.1v12c0,0.5,0.2,0.9,0.7,1.1
			c0.3,0.1,1.3,0.3,1.7,0.4v0.5h-7.9V199.6z"/>
		<path class="st0" d="M438.9,186.3c-0.2-0.6-0.4-0.9-1-1.3c-0.4-0.2-1-0.4-1.5-0.4v-0.5h7.9v0.5c-1.3,0.1-2.2,0.4-2.2,0.9
			c0,0.2,0,0.4,0.1,0.6c0.3,0.8,2.3,6.5,3.7,10.5c1.1-2.5,2.5-6.1,3-7.3c0.6-1.6,1.1-2.7,1.1-3.5c0-0.7-1.5-1.1-2.7-1.2v-0.5h6.3
			v0.5c-0.4,0-1.1,0.2-1.5,0.4c-0.7,0.4-1,1.1-1.3,1.9c-0.7,1.7-4.2,10-5.6,13.4h-1.2C442.2,195.7,439.5,188,438.9,186.3z"/>
		<path class="st0" d="M458,199.6c0.4,0,1.5-0.2,1.8-0.3c0.6-0.2,0.7-0.6,0.7-1.1v-11.9c0-0.5-0.1-0.9-0.7-1.1
			c-0.4-0.2-1.4-0.4-1.8-0.4v-0.5h13.3v3.9h-0.6c-0.3-1.1-1.5-3-2.6-3.1c-0.6-0.1-1.2-0.1-1.9-0.1h-2.5v6.7h1.8c1.3,0,1.7-0.4,2-0.7
			c0.4-0.4,0.7-1.6,0.8-2.2h0.6v6.6h-0.6c-0.1-0.7-0.5-1.9-0.8-2.3c-0.3-0.4-0.8-0.7-2-0.7h-1.8v5.2c0,1.8,0.4,2.1,2.6,2.1
			c1.5,0,3.1,0,3.6-0.5c0.8-0.8,1.7-2.7,2-3.4h0.6l-0.3,4.7H458V199.6z"/>
		<path class="st0" d="M488.3,196.4c-0.3-2.2-0.7-4.1-3.2-4.1h-1.4v5.7c0,0.5,0.2,0.9,0.7,1.1c0.3,0.1,1.3,0.3,1.7,0.3v0.5h-8v-0.5
			c0.4,0,1.4-0.2,1.7-0.3c0.6-0.2,0.7-0.6,0.7-1.2v-12c0-0.5-0.1-1-0.7-1.2c-0.4-0.2-1.3-0.3-1.7-0.4v-0.5h8.4c3,0,5.5,1.1,5.5,3.6
			c0,2.6-2.4,3.6-4.3,4.1v0.2c1.1,0.1,3,0.7,3.5,2.4c0.4,1.3,0.5,2.3,0.7,3.4c0.2,0.9,0.7,1.1,1.1,1.1c0.6,0,1.1-0.7,1.1-2.1
			c0,0,0-0.5,0-0.5h0.7l0,0.5c0,2.1-0.9,3.4-3.2,3.4C489.7,200.3,488.7,199.2,488.3,196.4z M484.8,191.7c2.1,0,3.8-0.8,3.8-3.5
			c0-2.6-1.4-3.4-3.3-3.4h-1.5v6.9H484.8z"/>
		<path class="st0" d="M501.9,199.2l-0.8,1.1h-0.8l-0.1-5.7h0.6c0.9,2.4,2.6,5,5.3,5c1.9,0,3-1.2,3-2.9c0-1.4-0.8-2.4-2.4-3
			c-1.2-0.4-2.1-0.8-3.2-1.2c-1.9-0.8-2.8-2.3-2.8-4.3c0-2.5,2-4.5,5-4.5c1.5,0,2.9,0.6,3.7,1.1l0.7-1h0.8l0.1,5.4h-0.5
			c-1.1-2.9-2.4-4.8-4.9-4.8c-1.2,0-2.4,0.9-2.4,2.5c0,1.4,0.8,2.2,2.3,2.9c1.1,0.5,2.2,0.8,3.1,1.2c1.9,0.8,3.2,1.9,3.2,4.4
			c0,2.9-2.3,4.9-5.6,4.9C504,200.4,502.7,199.7,501.9,199.2z"/>
		<path class="st0" d="M518,199.6c0.4,0,1.4-0.1,1.7-0.3c0.6-0.2,0.7-0.6,0.7-1.1v-12c0-0.5-0.2-0.9-0.7-1.1
			c-0.4-0.2-1.2-0.4-1.7-0.4v-0.5h7.9v0.5c-0.4,0-1.3,0.2-1.7,0.3c-0.6,0.2-0.7,0.6-0.7,1.1v12c0,0.5,0.2,0.9,0.7,1.1
			c0.3,0.1,1.3,0.3,1.7,0.4v0.5H518V199.6z"/>
		<path class="st0" d="M534.6,199.6c0.4,0,1.6-0.2,1.9-0.3c0.6-0.2,0.7-0.7,0.7-1.2v-13.3h-0.8c-0.5,0-1.3,0-1.8,0.1
			c-1,0.1-2.3,2.4-2.6,3.4h-0.6v-4.2h14.6v4.2h-0.6c-0.3-1-1.5-3.3-2.6-3.4c-0.5-0.1-1.2-0.1-1.8-0.1h-0.8V198
			c0,0.5,0.2,0.9,0.7,1.2c0.3,0.1,1.5,0.4,1.9,0.4v0.5h-8.4V199.6z"/>
		<path class="st0" d="M554.1,199.6c0.4,0,1.6-0.2,1.9-0.3c0.6-0.2,0.7-0.7,0.7-1.2v-3.7c0-0.7-0.2-1.2-0.7-2.1
			c-0.8-1.6-2.3-4.4-3.1-5.7c-0.4-0.7-0.9-1.3-1.5-1.6c-0.4-0.2-1.1-0.4-1.5-0.4v-0.5h8.3v0.5c-0.8,0-2.3,0.3-2.3,0.8
			c0,0.3,1.8,3.8,3.6,7c1-1.7,3.7-6.2,3.7-6.7c0-0.7-1.3-1-2.4-1.1v-0.5h6v0.5c-0.4,0-1,0.3-1.4,0.5c-0.6,0.4-1,0.7-1.5,1.4
			c-0.7,1-2.5,4-3.5,5.8c-0.6,1.1-0.8,1.8-0.8,2.9v2.9c0,0.5,0.2,0.9,0.7,1.2c0.3,0.1,1.5,0.4,1.9,0.4v0.5h-8.4V199.6z"/>
	</g>
	<g>
		<path class="st0" d="M255.5,309.7c-7.3,0-12.2-5-12.2-12.9c0-7.6,5.6-13.4,13-13.4c2,0,4.5,1,5.6,2l1.1-1.9h1.5l0.1,9.1h-0.9
			c-1.3-4.3-3.8-8.2-8.6-8.2c-3.8,0-7.4,3.7-7.4,12.1c0,6.7,4,11.2,8.9,11.2c4.5,0,6.6-2.3,8.1-5.5l1,0.5
			C264.1,306.2,261.1,309.7,255.5,309.7z"/>
		<path class="st0" d="M274.8,309.7c-4.4,0-8.4-3.4-8.4-8.8c0-5.2,3.4-8.9,8.6-8.9c5.2,0,8.4,3.7,8.4,8.7
			C283.5,305.5,280.4,309.7,274.8,309.7z M275,292.8c-3.8,0-4.8,4.3-4.8,7.8c0,4.4,1.4,8.2,4.8,8.2c3.3,0,4.7-3.7,4.7-8.2
			C279.8,296.8,278.6,292.8,275,292.8z"/>
		<path class="st0" d="M283.7,309.1v-0.7c0.7,0,1.1-0.1,1.6-0.3c0.7-0.2,1-0.9,1-1.7v-21c-0.1-0.9-0.4-1.7-1-2.1
			c-0.4-0.3-1.9-0.7-2.6-0.7V282l6.7-0.4l0.3,0.3v24.4c0,0.8,0.3,1.4,1,1.7c0.6,0.3,1,0.4,1.6,0.4v0.7H283.7z"/>
		<path class="st0" d="M293.3,309.1v-0.7c0.7,0,1.1-0.1,1.6-0.3c0.7-0.2,1-0.9,1-1.7v-21c-0.1-0.9-0.4-1.7-1-2.1
			c-0.4-0.3-1.9-0.7-2.6-0.7V282l6.7-0.4l0.3,0.3v24.4c0,0.8,0.3,1.4,1,1.7c0.6,0.3,1,0.4,1.6,0.4v0.7H293.3z"/>
		<path class="st0" d="M310.1,309.6c-5.6,0-8.2-4.1-8.2-8.9c0-4.4,2.8-8.7,7.8-8.7c5.1,0,6.9,3.3,6.9,7.1v0.3h-11v0.4
			c0,4.8,1.6,8.2,5.5,8.2c2.9,0,3.8-1,5.2-3.3l0.7,0.4C315.7,307.7,313.2,309.6,310.1,309.6z M309.7,292.8c-2.3,0-4,2.3-4.1,5.8
			l7.4-0.1C313,295.8,312.5,292.8,309.7,292.8z"/>
		<path class="st0" d="M333.7,295.5c-1.2,0-1.6-0.8-1.6-2.4c-1.2,0-1.7,0.2-2.3,0.6v0.3c0.9,1,1.4,2.4,1.4,3.5
			c0,3.2-3.2,5.2-6.2,5.2h-2.1c-0.7,0.3-1.3,0.8-1.3,1.6c0,1.8,2.1,1.7,4,1.8c1.1,0,3.4,0.2,4.1,0.2c2.2,0.1,4.7,1.9,4.7,5
			c0,3.4-2.9,6-9.3,6c-5.8,0-8.1-1.7-8.1-4.5c0-2.1,1.9-3.8,5.8-3.9v-0.3c-1.4-0.4-3.9-1.2-3.9-3.3c0-1.8,2.1-2.5,3.3-3v-0.2
			c-2.6-1-4.2-2.7-4.2-4.9c0-3.4,3-5.4,6.6-5.4c2.6,0,4.6,1.1,5.1,1.1c1.4-0.9,2.1-1.1,3.7-1.1c0.9,0,1.7,0.8,1.7,1.8
			C335.3,294.8,334.7,295.5,333.7,295.5z M329.5,309.6c-0.8-0.1-2.4-0.3-5.7-0.3c-2.6,0.5-3.6,1.6-3.6,3.8c0,1.5,1.4,3.3,5.5,3.3
			c3.6,0,5.7-1.4,5.7-4.3C331.4,311.4,331.3,310.2,329.5,309.6z M324.6,292.8c-2.4,0-3,2.1-3,4.6c0,2.6,1.2,4.6,3.1,4.6
			c2.2,0,3.1-2.1,3.1-4.5C327.8,295,327,292.8,324.6,292.8z"/>
		<path class="st0" d="M342.8,309.6c-5.6,0-8.2-4.1-8.2-8.9c0-4.4,2.8-8.7,7.8-8.7c5.1,0,6.9,3.3,6.9,7.1v0.3h-11v0.4
			c0,4.8,1.6,8.2,5.5,8.2c2.9,0,3.8-1,5.2-3.3l0.7,0.4C348.4,307.7,346,309.6,342.8,309.6z M342.4,292.8c-2.3,0-4,2.3-4.1,5.8
			l7.4-0.1C345.8,295.8,345.2,292.8,342.4,292.8z"/>
		<path class="st0" d="M364,309.7c-4.4,0-8.4-3.4-8.4-8.8c0-5.2,3.4-8.9,8.6-8.9c5.2,0,8.4,3.7,8.4,8.7
			C372.7,305.5,369.6,309.7,364,309.7z M364.3,292.8c-3.8,0-4.8,4.3-4.8,7.8c0,4.4,1.4,8.2,4.8,8.2c3.3,0,4.7-3.7,4.7-8.2
			C369,296.8,367.8,292.8,364.3,292.8z"/>
		<path class="st0" d="M386.1,286.7c-0.9,0-2.1-0.4-2.1-1.7c0-0.6,0.2-1.1,0.2-2c-0.1-0.4-0.5-0.7-0.9-0.7c-2.3,0-3.5,2.2-3.7,7.9
			c0,0.6,0,1.6,0,2.3h4.7v1.6h-4.7v12.2c0,0.8,0.3,1.4,1,1.7c0.6,0.2,1.7,0.4,2.4,0.4v0.7h-9.4v-0.7c0.7,0,1.1-0.1,1.6-0.3
			c0.7-0.2,1-0.9,1-1.7v-12.4h-3.8v-1.6h3.8v-1.1c0-3.1,0.7-5.7,2.5-7.6c1.5-1.6,3.5-2.3,5.4-2.3c2.8,0,3.9,1.7,3.9,3.3
			C388.1,285.5,387.4,286.7,386.1,286.7z"/>
		<path class="st0" d="M404.8,309.1H392v-0.8c0.7,0,2.3-0.3,2.7-0.5c0.9-0.3,1.1-1,1.1-1.8v-18.9c0-0.8-0.3-1.5-1.1-1.8
			c-0.8-0.3-1.9-0.6-2.6-0.6v-0.8h12.6c2.7,0,7.2,1.1,7.2,5.1c0,4.2-2.9,5.4-6.4,6.4v0.3c2.6,0.3,7.7,1.8,7.7,6.7
			C413.3,307.2,408.3,309.1,404.8,309.1z M402.8,284.9c-0.6,0-2.1,0-3,0.1v10.3h2.3c4.1,0,5.5-2.5,5.5-5.6
			C407.6,286,405.1,284.9,402.8,284.9z M402.9,296.3c-0.7,0-2.5,0-3.1,0.1v9.5c0.3,1.7,1.3,2.3,3.5,2.3c4.4,0,5.5-3.4,5.5-6.4
			C408.8,298.7,406.7,296.3,402.9,296.3z"/>
		<path class="st0" d="M426.7,309.2l-0.3-0.3v-2.3h-0.1c-1.4,1.4-2.7,2.9-5.9,2.9c-3.4,0-4.8-2.6-4.8-6v-7.8c-0.1-0.8-0.4-1.4-1-1.8
			c-0.4-0.3-1.2-0.6-1.8-0.6v-0.7l6-0.4l0.3,0.3v11.8c0,2.6,1.3,3.9,2.9,3.9c2.7,0,4-1.7,4.5-2.5v-9.9c-0.1-0.8-0.4-1.4-1-1.8
			c-0.4-0.3-1.4-0.4-2.4-0.5v-0.7l6.5-0.4l0.3,0.3v13.4c0.1,0.8,0.4,1.4,1,1.8c0.4,0.3,1.1,0.4,1.8,0.5v0.7L426.7,309.2z"/>
		<path class="st0" d="M439.2,309.7c-1.8,0-3.8-0.9-4.4-1.5l-0.4,1.1h-1.2l-0.2-5.7h0.8c0.4,1.8,2.6,5.2,5.6,5.2
			c2.6,0,3.5-1.4,3.5-3.2c0-1.9-1.4-2.7-4.3-3.5c-2.4-0.7-5-2.1-5-5.2c0-2.7,2.1-4.8,5.5-4.8c1.4,0,2.9,0.3,3.8,1l0.3-1h1.1l0.3,5.1
			h-0.8c-0.4-2.1-2.3-4.2-4.9-4.2c-2.3,0-2.9,1.3-2.9,2.7c0,2.1,1.3,2.5,4.3,3.5c3,1,5,2.4,5,5.4
			C445.4,307.7,442.6,309.7,439.2,309.7z"/>
		<path class="st0" d="M445.7,309.1v-0.7c0.7,0,1.1-0.1,1.6-0.3c0.7-0.2,1-0.9,1-1.7v-10.6c-0.1-0.8-0.4-1.4-1-1.8
			c-0.4-0.3-1.5-0.7-2.2-0.7v-0.7l6.3-0.4l0.3,0.3v13.8c0,0.8,0.3,1.4,1,1.7c0.6,0.3,1.1,0.4,1.6,0.4v0.7H445.7z M449.7,287.2
			c-1.2,0-2.3-1-2.3-2.3c0-1.3,1-2.3,2.3-2.3c1.4,0,2.3,1,2.3,2.2C452,286.1,451,287.2,449.7,287.2z"/>
		<path class="st0" d="M466,309.1v-0.7c0.7,0,1.2-0.1,1.7-0.3c0.7-0.2,1-0.9,1-1.7v-8.9c0-2.6-1.5-4-3.1-4c-2.7,0-4.2,1.7-4.6,2.6
			v10.1c0,0.8,0.3,1.4,1,1.7c0.6,0.3,1.1,0.4,1.7,0.4v0.7h-8.7v-0.7c0.7,0,1.1-0.1,1.6-0.3c0.7-0.2,1-0.9,1-1.7v-10.6
			c-0.1-0.8-0.4-1.6-1-2c-0.4-0.3-1.1-0.6-1.8-0.6v-0.7l5.9-0.4l0.3,0.3v2.5h0.1c1.4-1.4,2.8-3,6-3c3.4,0,5,2.3,5,5.8v8.5
			c0,0.8,0.3,1.4,1,1.7c0.5,0.2,1,0.4,1.6,0.4v0.7H466z"/>
		<path class="st0" d="M481.8,309.6c-5.6,0-8.2-4.1-8.2-8.9c0-4.4,2.8-8.7,7.8-8.7c5.1,0,6.9,3.3,6.9,7.1v0.3h-11v0.4
			c0,4.8,1.6,8.2,5.5,8.2c2.9,0,3.8-1,5.2-3.3l0.7,0.4C487.3,307.7,484.9,309.6,481.8,309.6z M481.3,292.8c-2.3,0-4,2.3-4.1,5.8
			l7.4-0.1C484.7,295.8,484.1,292.8,481.3,292.8z"/>
		<path class="st0" d="M495.3,309.7c-1.8,0-3.8-0.9-4.4-1.5l-0.4,1.1h-1.2l-0.2-5.7h0.8c0.4,1.8,2.6,5.2,5.6,5.2
			c2.6,0,3.5-1.4,3.5-3.2c0-1.9-1.4-2.7-4.3-3.5c-2.4-0.7-5-2.1-5-5.2c0-2.7,2.1-4.8,5.5-4.8c1.4,0,2.9,0.3,3.8,1l0.3-1h1.1l0.3,5.1
			H500c-0.4-2.1-2.3-4.2-4.9-4.2c-2.3,0-2.9,1.3-2.9,2.7c0,2.1,1.3,2.5,4.3,3.5c3,1,5,2.4,5,5.4
			C501.5,307.7,498.8,309.7,495.3,309.7z"/>
		<path class="st0" d="M508.9,309.7c-1.8,0-3.8-0.9-4.4-1.5l-0.4,1.1h-1.2l-0.2-5.7h0.8c0.4,1.8,2.6,5.2,5.6,5.2
			c2.6,0,3.5-1.4,3.5-3.2c0-1.9-1.4-2.7-4.3-3.5c-2.4-0.7-5-2.1-5-5.2c0-2.7,2.1-4.8,5.5-4.8c1.4,0,2.9,0.3,3.8,1l0.3-1h1.1l0.3,5.1
			h-0.8c-0.4-2.1-2.3-4.2-4.9-4.2c-2.3,0-2.9,1.3-2.9,2.7c0,2.1,1.3,2.5,4.3,3.5c3,1,5,2.4,5,5.4
			C515.1,307.7,512.4,309.7,508.9,309.7z"/>
	</g>
	<rect x="231.3" y="183.6" class="st0" width="1.2" height="126"/>
	<g>
		<path class="st0" d="M203.5,271c0.5-1.7,0.5-3.4,0.4-5.3C206.9,266.3,206.7,270.8,203.5,271 M184.4,302.3c0,0-0.6,3.2-2.4,2.3
			c-1.8-0.9-2.3-3.7-2.3-3.7S181.9,301.7,184.4,302.3 M198.1,307.4c-2.1,3.4-7.8-0.4-7.8-0.4c1.6-1.3,2.7-3.5,3-6.2
			C196.3,301,200.4,303.8,198.1,307.4 M174.7,211.4c-2.4-0.9-1.7-8.2-1.7-8.2c0.6,3.3,4.5,5.6,7.9,3.7
			C181,206.8,177.5,212.4,174.7,211.4 M169.4,268.2c-1.8,0.3-4-0.4-5.3-1.4c-4.2-3.3-6-12-6.3-18.7c1.8,3.9,4.7,9.9,10,8.3
			c1.8-0.6,3.9-2.9,3.9-2.9C173.3,257.9,174.7,267.2,169.4,268.2 M198.1,198.2c1.7,0.1,3.4,1.1,3.4,2.5c0,2.1-2.1,2.7-3.6,2.5
			c-2.1-0.2-3.1-1.4-3.1-2.7C194.8,199,196.3,198.1,198.1,198.2 M175.1,189.3c2.5-6.1,9.1-7.1,9.1-7.1c-5.1-0.2-21.3,2.4-22.8,18.5
			c-0.5,5.3,1.5,9.7,3.7,13.4c-2.7-2.1-6-5.6-6.5-10.4c-0.4-3.9,1.6-9.8,1.6-9.8c-3.9,4.6-8,10.3-7.1,18.1
			c0.8,7.3,5.7,12.2,8.9,16.3c-2.4-1.2-3.9-2.4-6.1-4.7c0.7,8.7,3.4,15.4,9.6,18.7c-7.8-0.7-9.4-6.2-11.6-12.4
			c-1.6-4.3-4.1-6.7-6.5-9.4c3.7,0.7,5.7,3.1,7.5,5.7c-1.2-7.5-6.6-10.8-14.2-11.8c3.2-2.9,8.6-0.1,11.1,1.4c0,0-1.6-3.1-3-4.6
			c-3.7-4-12-3.1-16.9-1.4c1.8-3.1,6.6-5.5,10.8-4.3c-2.6-2.2-5.7-3.8-9.8-4.1c-6.9-0.5-12.7,3.3-16.1,5.9c0.8-4.5,4.4-6.1,7.7-8.1
			c-11.5-1.9-17.3,5.3-21.1,12.4c-0.3-4.4,3.5-9.3,3.5-9.3c-14.1,5.8-12,21.7-12,21.7c-2.6-1.6-2.5-7.4-1.6-10.2c0,0-2.9,4-3,9.8
			c-0.1,5.9,4,12.1,4,12.1c-4.2-0.6-6.9-9.1-6.9-9.1c-2.3,11.9,7.8,21.5,7.8,21.5c-4.6-0.5-8.5-6.2-8.5-6.2
			c1.6,11.7,12,18.1,12,18.1c-3.2,0.7-8-2.6-8-2.6c4,9,9.9,13.4,9.9,13.4c-3.6,0.2-7.4-4.2-7.4-4.2c-0.3,4.2,2,9.7,2,9.7
			c-3.7-1.3-4.8-6.6-4.8-6.6c-3,4.2-2.4,10.5-2.4,10.5c-3.6-2.4-3.3-7.4-3.3-7.4c-3.5,1.7-5.5,8.7-5.5,8.7c-1.7-3.8,0.1-8.2,0.1-8.2
			c-4.9,1.2-7.9,7-7.9,7c-0.3-3.5,1.9-7.6,1.9-7.6c-3.8,0.1-7.1,5.5-7.1,5.5c-0.7-3.6,2.7-7.5,2.7-7.5c-4.2-0.4-7.8,4.1-7.8,4.1
			c-0.5-4.1,3.6-7.2,3.6-7.2c-4.5-1.1-7.8,2.9-7.8,2.9c-0.6-4.3,4.1-7.4,4.1-7.4c-3.6-1.5-7.5,1.6-7.5,1.6c-0.4-4.4,4.5-7,4.5-7
			c-3-2.1-7,0-7,0c0.6-3.6,5.2-4.6,5.2-4.6c-2.6-2.9-6.4-2.6-6.4-2.6c1.3-3.2,5.5-2.6,5.5-2.6c-2-2.9-5.7-3.9-5.7-3.9
			c2.3-2,5.6-0.6,5.6-0.6c-0.9-3.2-4.7-5-4.7-5c3-1,5.8,1,5.8,1c-0.4-2.9-3.4-5.6-3.4-5.6c3.4,0.1,5.8,2.7,5.8,2.7
			c0-2.5-1.7-5.5-1.7-5.5c2.8,0.9,5.2,3.7,5.2,3.7c0.3-2.3-0.4-3.7-0.4-3.7c4.6,1.7,7.5,5.2,10,9.1c-1.3-7.2-5.8-12.4-13-13
			c-12.6-1.1-20.6,13.2-20.6,23.6c0,12.2,4.2,20.3,9.6,28.2c6.3,9.2,17.2,16.2,27.5,18.3c-3.3,1.1-6.3,3.7-6.3,6.7
			c5.3,0.4,9.7,2.8,11.9,5.7h18.6c4.5,0,8.7-0.1,10.1-0.4c3.4-0.7,5-8.5,9.1-8.3c4.1,0.2,2.9,6.7-0.6,6.9c-1.1,0.1-1.7-0.5-2.6-0.8
			c3.7,8.8,14.7-1.2,9.6-7.3c6,0.2,5.6,7.9,1.4,8.7c6.5,0.6,8.4-5.8,5.4-10.5c-3-4.7-8.9-3.8-13.7-1.5c-4.8,2.2-9.1,4-12.2,4.4
			c-2.6,0.3-5,0.2-6.7-0.8c-4.9-2.9,3.8-7.7,5.9-8.9c7.7-4.7,15.9-10.3,16.7-21.3c0.6-8.3-2.5-12.6-5.1-17.7
			c-2.1-4.2-4.3-8.4-4.7-13.8c-0.5-7.4,5-12.9,11.6-12.6c9.3,0.4,14,7.8,14.6,17.1c0.2,3.7-0.6,8.1-0.8,11.8
			c-1,15.4,6.4,23.3,14.6,30.5c7.6,6.6,15,10.8,24.4,14.8c0.6,5.9,4.3,12.5,11.4,9.4c3.7,6.3,17.4,5.2,15.4-4.1
			c-0.9-4.3-7.2-4.9-6.8-9.8c0.2-2.3,2.9-3.6,5.4-2.8c2.6,0.9,3.9,4.9,3.7,7.7c4.1-6.8-0.1-16.8-8.5-14.8c-4.3,1-8.5,8.5-8.5,8.5
			c-5.5-3-10.7-5.9-10.7-5.9c12.5-0.6,20.5-6.2,25.1-14.7c6,1.4,10.1-2.8,8.5-7.7c0,0,5.3,1.6,5.9,6c0.6,4.3-5.2,5.3-8.4,3.2
			c0,0,2.8,6.6,8.1,5.3c5.3-1.3,4.7-6.9,3.6-9.2c-1.2-2.2-5.9-6.5-4.7-9.3c1.2-2.9,7-0.9,6.2,6.5c4.2-5.9,0.5-15.2-6.3-15.2
			c-5,0-7,4.3-8.3,8.7c0,0-1.6-0.6-3.5-0.2c-1-7.1-5.5-11.8-12.8-14.6c-6.5-2.5-12.8-6.9-13.4-14c-0.3-3.3,0.8-6,3.3-7.3
			c6.5-3.3,10.9,3.8,12,8.5c-0.1-5.5,2-8.2,4.5-11c-2-3.3-5.8-6.1-11-5.5c-3.6,0.4-7,2.4-7,2.4c1.7-3.8,4.6-10.6,11.1-10.9
			c5.3-0.3,7.8,4.4,9.4,8.9c0.9-8.6,5.5-14.6,9.8-19.1c-5,2.9-7.6-3.3-12.4-3.3c-6.9,0-10.2,7.6-16.1,8.3c-2.4,0.3-4.3-1.4-5.3-2.2
			C174,200,172.6,195.4,175.1,189.3"/>
	</g>
</g>
</svg>
